HIERARCHY
ROOT SimulationBone
{
	OFFSET 0.000000 0.000000 0.000000
	CHANNELS 6 Xposition Yposition Zposition Zrotation Yrotation Xrotation 
	JOINT Hips
	{
		OFFSET 0.000000 0.000000 0.000000
		CHANNELS 6 Xposition Yposition Zposition Zrotation Yrotation Xrotation 
		JOINT LeftUpLeg
		{
			OFFSET 0.103458 1.857842 10.548504
			CHANNELS 3 Zrotation Yrotation Xrotation
			JOINT LeftLeg
			{
				OFFSET 43.500000 -0.000038 0.000000
				CHANNELS 3 Zrotation Yrotation Xrotation
				JOINT LeftFoot
				{
					OFFSET 42.372200 0.000008 0.000004
					CHANNELS 3 Zrotation Yrotation Xrotation
					JOINT LeftToe
					{
						OFFSET 17.299992 -0.000003 -0.000013
						CHANNELS 3 Zrotation Yrotation Xrotation
						End Site
						{
							OFFSET 0.000000 0.000000 0.000000
						}
					}
				}
			}
		}
		JOINT RightUpLeg
		{
			OFFSET 0.103456 1.857816 -10.548503
			CHANNELS 3 Zrotation Yrotation Xrotation
			JOINT RightLeg
			{
				OFFSET 43.500042 -0.000023 0.000008
				CHANNELS 3 Zrotation Yrotation Xrotation
				JOINT RightFoot
				{
					OFFSET 42.372265 -0.000008 0.000010
					CHANNELS 3 Zrotation Yrotation Xrotation
					JOINT RightToe
					{
						OFFSET 17.300022 0.000005 0.000000
						CHANNELS 3 Zrotation Yrotation Xrotation
						End Site
						{
							OFFSET 0.000000 0.000000 0.000000
						}
					}
				}
			}
		}
		JOINT Spine
		{
			OFFSET 6.901966 -2.603735 -0.000002
			CHANNELS 3 Zrotation Yrotation Xrotation
			JOINT Spine1
			{
				OFFSET 12.588103 0.000016 0.000000
				CHANNELS 3 Zrotation Yrotation Xrotation
				JOINT Spine2
				{
					OFFSET 12.343200 0.000002 -0.000002
					CHANNELS 3 Zrotation Yrotation Xrotation
					JOINT Neck
					{
						OFFSET 25.832891 -0.000029 0.000006
						CHANNELS 3 Zrotation Yrotation Xrotation
						JOINT Head
						{
							OFFSET 11.766613 0.000029 -0.000002
							CHANNELS 3 Zrotation Yrotation Xrotation
							End Site
							{
								OFFSET 0.000000 0.000000 0.000000
							}
						}
					}
					JOINT LeftShoulder
					{
						OFFSET 19.745903 -1.480385 6.000109
						CHANNELS 3 Zrotation Yrotation Xrotation
						JOINT LeftArm
						{
							OFFSET 11.284124 -0.000024 -0.000022
							CHANNELS 3 Zrotation Yrotation Xrotation
							JOINT LeftForeArm
							{
								OFFSET 33.000057 0.000000 0.000033
								CHANNELS 3 Zrotation Yrotation Xrotation
								JOINT LeftHand
								{
									OFFSET 25.199997 0.000045 -0.000004
									CHANNELS 3 Zrotation Yrotation Xrotation
									End Site
									{
										OFFSET 0.000000 0.000000 0.000000
									}
								}
							}
						}
					}
					JOINT RightShoulder
					{
						OFFSET 19.746105 -1.480396 -6.000069
						CHANNELS 3 Zrotation Yrotation Xrotation
						JOINT RightArm
						{
							OFFSET 11.284142 -0.000028 -0.000010
							CHANNELS 3 Zrotation Yrotation Xrotation
							JOINT RightForeArm
							{
								OFFSET 33.000084 0.000033 0.000011
								CHANNELS 3 Zrotation Yrotation Xrotation
								JOINT RightHand
								{
									OFFSET 25.199783 0.000119 0.000426
									CHANNELS 3 Zrotation Yrotation Xrotation
									End Site
									{
										OFFSET 0.000000 0.000000 0.000000
									}
								}
							}
						}
					}
				}
			}
		}
	}
}
MOTION
Frames: 10
Frame Time: 0.033333
-371.451846 0.000000 63.275858 0.000000 -23.292239 0.000000 -6.340022 84.620270 0.195622 90.005985 -1.280983 179.003043 158.197686 -15.776000 158.429885 -48.099585 -3.027162 -3.321901 93.568899 1.395957 -7.016071 21.454551 0.003092 -0.000000 153.091464 25.111498 -173.842521 -28.205360 0.319830 3.260066 79.130822 -0.651169 6.237743 21.454560 -0.003107 -0.000018 13.710214 -0.679395 -0.230012 17.411979 -1.316395 -0.559769 17.093791 -1.319617 -0.551794 -5.983282 16.432832 -0.285913 -23.963405 -2.701818 4.522702 166.611195 -85.229027 11.857879 -26.651297 49.188239 23.834951 -45.313545 -20.542265 1.971929 -3.764665 -16.539858 17.852439 162.110906 73.150766 -16.959804 -16.159095 -52.358591 -16.876347 -46.524814 24.240352 -2.286081 1.123928 24.525422 -14.777738 
-371.534953 0.000000 63.954801 0.000000 -25.934640 0.000000 -6.453068 84.497887 -0.147139 90.080318 -1.811523 179.214694 159.167791 -15.862793 157.033111 -48.185113 -3.092855 -3.929040 93.785116 1.761154 -7.508672 21.454555 0.003090 0.000000 152.331851 26.006702 -170.986887 -28.702121 0.352106 4.790516 78.883453 -1.749034 6.136364 21.454557 -0.003106 -0.000015 13.671528 -0.698752 -0.308626 17.335621 -1.343308 -0.718597 17.017466 -1.347490 -0.710457 -5.797762 16.969897 0.547458 -23.931385 -3.934776 6.005733 169.029137 -85.133814 9.426400 -28.309722 49.492237 22.502005 -45.807558 -20.603156 1.991046 -4.086607 -16.352926 18.345137 162.417432 73.240931 -16.641933 -15.431972 -52.570743 -17.673106 -45.701332 24.137303 -2.252895 1.217433 26.374222 -13.136364 
-371.671463 0.000000 64.839551 0.000000 -28.528901 0.000000 -6.591806 84.382423 -0.538032 90.068827 -2.282726 179.376353 160.124155 -16.048491 155.659069 -48.226767 -3.109590 -4.523262 93.967147 2.099746 -8.142408 21.454553 0.003092 -0.000000 151.355066 26.701506 -168.544125 -29.645579 0.336726 6.459727 78.603859 -2.863591 6.338416 21.454557 -0.003099 -0.000017 13.627055 -0.697428 -0.341510 17.247010 -1.336084 -0.783302 16.928839 -1.340655 -0.775206 -5.721067 17.730109 1.285075 -23.637260 -5.411062 7.541872 167.289378 -85.091562 11.180050 -29.809876 49.785341 21.433245 -46.284606 -20.631471 2.007641 -4.611620 -16.834133 17.773093 163.079304 73.093454 -15.970956 -14.598131 -52.530783 -18.526948 -45.074474 24.072413 -2.228854 0.828038 28.388544 -12.367523 
-371.855762 0.000000 65.919407 0.000000 -31.076453 0.000000 -6.774786 84.290703 -0.968696 89.975755 -2.737243 179.519904 161.115201 -16.262691 154.445686 -48.119639 -3.211723 -5.154848 94.055038 2.449698 -8.875249 21.454551 0.003091 0.000000 150.086713 27.206607 -167.116438 -30.875549 0.511359 8.200083 77.954855 -3.787118 7.427353 21.454557 -0.003118 -0.000020 13.585024 -0.676857 -0.368300 17.163005 -1.291531 -0.833052 16.844864 -1.296398 -0.825224 -5.491251 18.534669 1.959267 -23.507500 -6.984257 9.042715 166.073891 -85.058388 12.405521 -31.540290 50.078329 20.041211 -46.870602 -20.553385 2.020688 -5.177236 -17.306207 17.597134 163.627618 72.990188 -15.414120 -13.975801 -52.511102 -18.940033 -44.541033 24.022499 -2.208967 0.255402 30.300898 -12.124603 
-372.082239 0.000000 67.183663 0.000000 -33.578792 0.000000 -6.975800 84.131653 -1.366091 89.798929 -3.264683 179.731019 162.024846 -16.437400 153.372663 -48.070028 -3.236506 -5.791720 94.125778 2.777555 -9.811455 21.454551 0.003092 -0.000000 148.562038 27.709191 -165.742067 -32.352458 0.581667 8.722192 77.353019 -3.973300 8.006451 21.454557 -0.003103 -0.000018 13.544217 -0.650052 -0.433252 17.081729 -1.228939 -0.957861 16.763598 -1.234566 -0.950405 -5.260079 19.243259 2.687466 -23.458292 -8.460489 10.537170 165.715812 -85.002012 12.768364 -33.241783 50.312857 18.625757 -47.646539 -20.567689 2.046109 -5.715842 -17.733478 18.244613 164.049287 73.047377 -14.979778 -13.678880 -52.574309 -19.022285 -44.037778 24.044131 -2.194983 0.090118 31.800493 -11.679035 
-372.345278 0.000000 68.621619 0.000000 -36.037409 0.000000 -7.179847 83.921410 -1.697988 89.562820 -3.743074 179.941443 162.954940 -16.768003 152.406136 -48.052816 -3.285644 -6.398901 94.175372 3.065809 -10.921009 21.454553 0.003093 0.000000 146.837142 27.832201 -165.101887 -34.011419 0.627419 7.837837 77.060701 -3.238463 8.352956 21.454560 -0.003101 -0.000014 13.511222 -0.600512 -0.523938 17.015939 -1.117346 -1.130603 16.697835 -1.124022 -1.123820 -5.076159 19.578326 3.458420 -23.479332 -9.602052 11.863149 164.563641 -84.979014 13.929727 -34.527931 50.561319 17.153245 -48.829753 -20.607675 2.086801 -6.562198 -18.025122 19.054558 164.240518 73.199363 -14.777287 -13.637161 -52.700100 -18.886390 -43.506352 24.128581 -2.184509 -0.319632 33.505609 -11.366993 
-372.639268 0.000000 70.222571 0.000000 -38.453731 0.000000 -7.392270 83.726509 -2.004793 89.314633 -4.075733 -179.992188 164.087604 -17.304090 151.486943 -47.895916 -3.439518 -7.026022 94.150756 3.352374 -12.137999 21.454553 0.003091 0.000000 145.009164 27.329498 -165.483995 -35.836985 0.702023 6.599260 77.363948 -2.371637 8.394569 21.454558 -0.003106 -0.000017 13.489930 -0.538652 -0.579161 16.972972 -0.986431 -1.231157 16.654899 -0.993718 -1.225165 -4.824062 20.301887 4.136411 -23.760435 -10.974869 13.298705 158.803783 -85.190094 19.719171 -35.459658 51.035604 15.981591 -49.943081 -20.917963 2.144231 -7.419278 -18.693324 19.276302 164.706624 73.176065 -14.301031 -13.741040 -52.718498 -18.447199 -43.424147 24.161830 -2.184257 -0.729385 35.178999 -11.569710 
-372.958595 0.000000 71.975816 0.000000 -40.829068 0.000000 -7.590492 83.491203 -2.232862 88.921176 -4.348346 -179.815329 165.158400 -17.917599 150.609469 -47.703397 -3.480541 -7.587848 94.047163 3.563367 -13.528069 21.454553 0.003091 0.000000 142.957362 26.499295 -166.194991 -38.046684 0.557297 5.331462 77.941645 -1.544000 8.262114 21.454560 -0.003111 -0.000019 13.451759 -0.429241 -0.688108 16.895788 -0.753318 -1.431552 16.577760 -0.761802 -1.426972 -4.821413 20.507143 4.825963 -23.854948 -11.894589 14.461881 156.922531 -85.200818 21.611857 -36.311017 51.245748 14.741722 -50.809279 -20.950719 2.175386 -8.125474 -19.033434 19.649228 164.774721 73.249817 -14.228111 -13.976906 -52.756115 -17.722046 -43.615659 24.250698 -2.195994 -1.227052 36.121811 -11.963941 
-373.297646 0.000000 73.870652 0.000000 -43.164575 0.000000 -7.800464 83.288589 -2.417279 88.384204 -4.468109 -179.584129 166.284398 -18.645698 149.769383 -47.257246 -3.516012 -8.104970 93.738015 3.688260 -15.158611 21.454555 0.003094 -0.000000 141.021673 25.365004 -167.228794 -40.308894 0.553829 4.753502 78.609453 -1.204313 8.166131 21.454557 -0.003097 -0.000017 13.388566 -0.266518 -0.811773 16.767392 -0.412478 -1.653575 16.449421 -0.422327 -1.651043 -4.974362 20.448099 5.489838 -23.877976 -12.649685 15.488782 158.631786 -85.074630 19.898009 -37.071354 51.167201 13.643070 -51.461302 -20.641925 2.176562 -8.214953 -19.453895 19.602896 164.389321 73.506940 -14.611822 -14.139817 -52.872177 -17.283729 -44.099140 24.466523 -2.225198 -1.327609 36.432062 -11.913130 
-373.650806 0.000000 75.896375 0.000000 -45.461210 0.000000 -7.969427 83.097069 -2.579768 87.828888 -4.551114 -179.310095 167.654165 -19.324004 148.921401 -46.511310 -3.549952 -8.597952 93.251603 3.743497 -16.961711 21.454553 0.003092 -0.000000 139.271901 24.141012 -167.957316 -42.698781 0.378112 4.297986 79.463131 -0.971176 8.030635 21.454555 -0.003119 -0.000020 13.309033 -0.080187 -0.933375 16.605435 -0.025472 -1.868521 16.287515 -0.036618 -1.868323 -4.943691 20.595022 6.155118 -23.922302 -13.762310 16.688826 154.648720 -85.007271 23.910395 -37.194106 51.348870 13.169582 -51.885061 -20.683660 2.193832 -8.426577 -20.015992 19.214669 164.209113 73.699859 -14.787986 -14.181555 -52.873737 -17.029403 -44.695262 24.540795 -2.248575 -1.444531 36.231234 -12.039546 
